<?xml version="1.0" standalone="yes"?>
<svg xmlns="http://www.w3.org/2000/svg" width="2732" height="2732">
<path style="fill:#434343; stroke:none;" d="M0 0L0 2732L2732 2732L2732 0L0 0z"/>
<path style="fill:#040404; stroke:none;" d="M1100 1102C1089.96 1120.03 1077.24 1136.04 1068.69 1155C1066.35 1160.21 1060.4 1169.14 1063.22 1174.96C1065.8 1180.29 1073.13 1181.1 1078 1183.31C1088.37 1188.02 1096.75 1196.15 1107 1201C1103.5 1215.2 1099.56 1229.62 1096.8 1244C1095.47 1251 1096.4 1259.18 1090.67 1264.47C1084.81 1269.88 1077.97 1267.07 1071 1267.26C1058.78 1267.59 1047.11 1272.04 1035 1273L1035 1351C1047.32 1351 1059.68 1351.29 1072 1350.99C1077.88 1350.84 1083.65 1349.1 1088.96 1352.73C1094.89 1356.79 1094.71 1363.64 1095.75 1370C1097.6 1381.25 1101.3 1392.07 1104.42 1403C1105.53 1406.88 1109.6 1415.49 1107.1 1419.21C1104.54 1423.01 1097.88 1425.36 1094 1427.58C1083.15 1433.8 1072.33 1440.71 1061 1446C1068.75 1464.89 1077.48 1484.09 1089.03 1501C1092.29 1505.77 1097.8 1516.03 1104 1517.12C1107.37 1517.71 1111.25 1514.57 1114 1513C1121.96 1508.46 1130.02 1504.08 1138 1499.58C1142.61 1496.97 1147.1 1493.33 1152 1497.19C1164.3 1506.87 1174.93 1519.93 1186 1531C1189.07 1534.07 1196.37 1539.04 1195.61 1544C1194.1 1553.72 1182.88 1566.54 1177.8 1575C1175.79 1578.34 1170.84 1583.85 1172.83 1587.96C1175.21 1592.88 1182.63 1596.96 1187 1599.97C1199.16 1608.37 1211.8 1615.64 1225 1622.25C1229.17 1624.33 1238.96 1631.7 1243.47 1628.35C1252.47 1621.68 1259.04 1603.61 1264.8 1594C1266.92 1590.47 1269.76 1582.81 1274.1 1581.64C1279.03 1580.31 1288.17 1585.83 1293 1587.28C1307.14 1591.54 1323.3 1596.72 1338 1598L1338 1656L1379 1659L1379 1539C1385.07 1539 1397.55 1541.22 1402.14 1536.27C1405.82 1532.3 1401.07 1517.82 1408.13 1517.04C1416.82 1516.07 1414.09 1531.36 1417.14 1535.7C1420.53 1540.52 1433.58 1540.35 1437.06 1535.69C1440.73 1530.78 1438.83 1524.22 1443 1519C1445.58 1525.2 1448.58 1533.36 1454.04 1537.57C1460.94 1542.87 1469.63 1537.83 1470.71 1530C1473.55 1509.37 1467.33 1486.13 1460 1467C1475.69 1462.95 1491.04 1471.49 1507 1464.91C1526.72 1456.77 1525.3 1434.55 1532.09 1418C1537.72 1404.3 1546.06 1396.01 1543.7 1380C1540.99 1361.65 1522.41 1352.22 1525.3 1332C1529.76 1300.76 1548.58 1272.55 1549.96 1241C1552.48 1183.53 1519.5 1129.02 1468 1103.27C1440.29 1089.41 1410.02 1085.59 1380 1080C1388.89 1106.72 1384 1139.93 1384 1168C1384 1224.61 1385.37 1281.41 1383.99 1338C1383.5 1357.65 1375.79 1378.56 1377.33 1398C1378.4 1411.56 1388.85 1418.62 1394.74 1430C1401.51 1443.08 1403.25 1457.63 1409 1471C1396.59 1470.89 1390.73 1461.13 1380 1457C1387.67 1484.23 1379 1511.32 1379 1539C1373.39 1539 1359.69 1541.51 1355.86 1536.68C1351.25 1530.89 1355.03 1519.87 1353 1513C1345.46 1518.93 1345.7 1529.14 1345 1538L1321 1538L1321 1511C1310.89 1516.26 1308.46 1527.4 1308 1538L1284 1538C1287.13 1513.34 1290.02 1487.32 1299 1464C1289.05 1465.77 1280.43 1472.31 1270 1472.54C1238.05 1473.27 1235.18 1438.38 1226.55 1417C1222.62 1407.27 1211.6 1398.15 1212.39 1387C1213.15 1376.24 1221.81 1368.93 1226.69 1360C1232.49 1349.37 1233.48 1335.85 1231.39 1324C1225.51 1290.73 1206.52 1261.61 1208.04 1227C1211.88 1139.4 1296.17 1079 1379 1079L1379 964C1368.17 964 1347.25 958.086 1340.23 969.094C1330.96 983.625 1349 1016.57 1329 1022.29C1316.37 1025.9 1303.63 1029.09 1291 1032.71C1286.67 1033.95 1279.49 1037.35 1275.01 1036.21C1270.38 1035.03 1267.02 1028.62 1264.43 1025C1257.84 1015.78 1252.36 1004.24 1243 997.434C1237.23 993.234 1228.95 994.862 1223 997.809C1208.61 1004.94 1194.03 1014.66 1181 1024.04C1162.03 1037.7 1194.45 1059.8 1193.87 1077C1193.57 1085.89 1185.8 1092.23 1180 1098C1175.51 1102.46 1170.75 1106.65 1166 1110.83C1162.13 1114.24 1157.78 1117.61 1153 1119.64C1133.61 1127.84 1117.38 1105.35 1100 1102z"/>
<path style="fill:#933c3b; stroke:none;" d="M1384 963L1384 964L1400 964L1384 963z"/>
<path style="fill:#5d1e1d; stroke:none;" d="M1379 964L1379 1079L1380 1079L1380 999L1379 964z"/>
<path style="fill:#e42523; stroke:none;" d="M1380 964L1380 1080C1461.35 1083.49 1548.82 1139.46 1550.99 1228C1551.9 1265.18 1530.67 1297.66 1525.44 1334C1522.68 1353.2 1542.11 1364.98 1544.7 1383C1546.6 1396.23 1538.22 1404.85 1533.19 1416C1525.19 1433.72 1527.48 1456.59 1506 1465.52C1490.79 1471.84 1475.69 1462.66 1461 1467C1464.79 1485.29 1472.79 1502.91 1471.96 1522C1471.58 1530.86 1465.86 1546.87 1454.09 1537.57C1448.69 1533.3 1446.37 1525.78 1443 1520C1438.34 1524.44 1440.72 1529.83 1437.82 1534.87C1434.33 1540.94 1419.87 1540.96 1416.46 1534.89C1414.04 1530.6 1415.92 1525.38 1413.68 1521.04C1412.2 1518.17 1409.9 1517 1407 1516C1404.23 1521.75 1406.38 1528.33 1403.57 1533.95C1399.78 1541.5 1386.94 1539 1380 1539L1380 1628C1380 1633.8 1376.87 1654.22 1381.6 1657.97C1388.9 1663.75 1409.99 1655.35 1413.35 1648C1416.43 1641.23 1413.38 1633.8 1412 1627C1410.24 1618.27 1408.88 1601.53 1412.6 1593.23C1414.71 1588.52 1424.58 1588.2 1429 1587.13C1445.89 1583.03 1462.34 1578.65 1479 1573.72C1497.05 1568.38 1503.53 1589.17 1510.26 1602C1512.98 1607.18 1517.99 1616.31 1525 1615.1C1537.95 1612.87 1552.48 1601.07 1563 1593.72C1566.63 1591.19 1573.72 1588.27 1573.32 1582.99C1572.14 1567.42 1551.76 1557.76 1553.55 1541C1555.36 1524.16 1580.39 1502.44 1593 1492.52C1607.5 1481.11 1619.47 1484.53 1634 1493.68C1639.78 1497.32 1651.88 1507.54 1658.11 1500.85C1667.59 1490.67 1675.51 1476.7 1681 1464C1682.54 1460.44 1687.15 1454.29 1684.35 1450.53C1674.61 1437.45 1652.55 1436.48 1646.13 1419C1640.22 1402.9 1652.71 1376.1 1658.43 1361C1664.86 1344 1678.63 1342.42 1695 1342.01C1702.46 1341.83 1712.13 1343.67 1717.35 1336.89C1724.79 1327.21 1721.79 1301.27 1719.33 1290C1718.41 1285.76 1716.57 1277.73 1711.79 1276.32C1697.1 1271.97 1678.25 1282.9 1665.04 1273.2C1652.56 1264.04 1652.58 1242.79 1649.13 1229C1647.1 1220.9 1638.92 1205.71 1643.74 1198C1652.01 1184.78 1675.48 1177.1 1688 1168L1688 1167C1679.35 1156.85 1674.18 1144.37 1667.4 1133C1664.77 1128.6 1661.27 1121.55 1656.56 1119.07C1652.64 1117.01 1646.47 1121.05 1643 1122.76C1633.49 1127.43 1622.92 1134.14 1612 1133.98C1593.74 1133.72 1575.95 1107.71 1564 1095.99C1549.12 1081.39 1554.95 1068.47 1563.25 1052C1565.72 1047.1 1571.06 1040.8 1570.26 1035C1569.42 1028.97 1562.64 1025.32 1558 1022.43C1545.91 1014.88 1533.27 1009.12 1520 1004C1513.19 1015.12 1505.89 1038.52 1494 1044.54C1480.97 1051.14 1456.1 1037.32 1443 1033.88C1436.76 1032.25 1416.51 1031.91 1413.03 1026.68C1410.92 1023.52 1412 1017.62 1412 1014L1412 982C1411.99 975.142 1411.69 967.252 1404 964.804C1396.8 962.517 1387.48 964 1380 964z"/>
<path style="fill:#933c3b; stroke:none;" d="M1403.67 964.333L1404.33 964.667L1403.67 964.333M1406 965L1407 966L1406 965M1408 966L1409 967L1408 966M1409 967L1410 968L1409 967M1410 969L1411 970L1410 969M1411 971L1411 974L1412 974L1411 971M1412 976L1412 1028L1413 1028L1413 993L1412 976M1519 1004L1520 1005L1519 1004M1521.67 1004.33L1522.33 1004.67L1521.67 1004.33M1523.67 1005.33L1524.33 1005.67L1523.67 1005.33M1518 1006L1519 1007L1518 1006M1526.67 1006.33L1527.33 1006.67L1526.67 1006.33M1517.33 1007.67L1517.67 1008.33L1517.33 1007.67M1529 1007L1530 1008L1529 1007M1531 1008L1532 1009L1531 1008M1516 1009L1517 1010L1516 1009M1533.67 1009.33L1534.33 1009.67L1533.67 1009.33M1535.67 1010.33L1536.33 1010.67L1535.67 1010.33M1515 1011L1516 1012L1515 1011M1538 1011L1539 1012L1538 1011M1540 1012L1541 1013L1540 1012M1514 1013L1515 1014L1514 1013M1542 1013L1543 1014L1542 1013M1513 1014L1514 1015L1513 1014M1544 1014L1545 1015L1544 1014M1546 1015L1547 1016L1546 1015M1512 1016L1513 1017L1512 1016M1547.67 1016.33L1548.33 1016.67L1547.67 1016.33M1549 1017L1550 1018L1549 1017M1511 1018L1512 1019L1511 1018M1551 1018L1552 1019L1551 1018M1510.33 1019.67L1510.67 1020.33L1510.33 1019.67M1553 1019L1554 1020L1553 1019M1554.67 1020.33L1555.33 1020.67L1554.67 1020.33M1509 1021L1510 1022L1509 1021M1556 1021L1557 1022L1556 1021M1558 1022L1559 1023L1558 1022M1508 1023L1509 1024L1508 1023M1559 1023L1560 1024L1559 1023M1561 1024L1562 1025L1561 1024M1507 1025L1508 1026L1507 1025M1562 1025L1563 1026L1562 1025M1506.33 1026.67L1506.67 1027.33L1506.33 1026.67M1564 1026L1565 1027L1564 1026M1565 1027L1566 1028L1565 1027M1413 1028L1413 1029L1417 1029L1413 1028M1505.33 1028.67L1505.67 1029.33L1505.33 1028.67M1566 1028L1567 1029L1566 1028M1421 1029L1421 1030L1425 1030L1421 1029M1427 1030L1427 1031L1430 1031L1427 1030M1504.33 1030.67L1504.67 1031.33L1504.33 1030.67M1568 1030L1569 1031L1568 1030M1432 1031L1432 1032L1435 1032L1432 1031M1569 1031L1570 1032L1569 1031M1437.67 1032.33L1438.33 1032.67L1437.67 1032.33M1503.33 1032.67L1503.67 1033.33L1503.33 1032.67M1441.67 1033.33L1442.33 1033.67L1441.67 1033.33M1570.33 1033.67L1570.67 1034.33L1570.33 1033.67M1445.67 1034.33L1446.33 1034.67L1445.67 1034.33M1502.33 1034.67L1502.67 1035.33L1502.33 1034.67M1448.67 1035.33L1449.33 1035.67L1448.67 1035.33M1452.67 1036.33L1453.33 1036.67L1452.67 1036.33M1501.33 1036.67L1501.67 1037.33L1501.33 1036.67M1455.67 1037.33L1456.33 1037.67L1455.67 1037.33M1570.33 1037.67L1570.67 1038.33L1570.33 1037.67M1458.67 1038.33L1459.33 1038.67L1458.67 1038.33M1500 1038L1501 1039L1500 1038M1462.67 1039.33L1463.33 1039.67L1462.67 1039.33M1465.67 1040.33L1466.33 1040.67L1465.67 1040.33M1499 1040L1500 1041L1499 1040M1569 1040L1570 1041L1569 1040M1468.67 1041.33L1469.33 1041.67L1468.67 1041.33M1498 1041L1499 1042L1498 1041M1471.67 1042.33L1472.33 1042.67L1471.67 1042.33M1497 1042L1498 1043L1497 1042M1568 1042L1569 1043L1568 1042M1474.67 1043.33L1475.33 1043.67L1474.67 1043.33M1496 1043L1497 1044L1496 1043M1478.67 1044.33L1479.33 1044.67L1478.67 1044.33M1494 1044L1495 1045L1494 1044M1567 1044L1568 1045L1567 1044M1481 1045L1481 1046L1484 1046L1481 1045M1491.67 1045.33L1492.33 1045.67L1491.67 1045.33M1566 1045L1567 1046L1566 1045M1565 1047L1566 1048L1565 1047M1564 1049L1565 1050L1564 1049M1563 1051L1564 1052L1563 1051M1562 1053L1563 1054L1562 1053M1561.33 1055.67L1561.67 1056.33L1561.33 1055.67M1560.33 1057.67L1560.67 1058.33L1560.33 1057.67M1559.33 1059.67L1559.67 1060.33L1559.33 1059.67M1558 1061L1559 1062L1558 1061M1557.33 1063.67L1557.67 1064.33L1557.33 1063.67M1556.33 1065.67L1556.67 1066.33L1556.33 1065.67M1555.33 1068.67L1555.67 1069.33L1555.33 1068.67M1554 1071L1554 1074L1555 1074L1554 1071z"/>
<path style="fill:#434343; stroke:none;" d="M1299 1464C1288.26 1484.46 1285.8 1515.19 1284 1538L1308 1538C1308.89 1526.76 1311.8 1518.03 1321 1511L1321 1538L1345 1538C1346.21 1528.45 1346.26 1520.51 1353 1513C1354.53 1519.43 1351.21 1532.47 1355.86 1537.4C1359.71 1541.48 1373.7 1539 1379 1539C1379 1512.39 1389.72 1482.75 1380 1457C1390.15 1462.78 1396.58 1470.96 1409 1471C1404.26 1456.18 1401.3 1440.74 1393.69 1427C1388.03 1416.79 1378.45 1410.42 1377.52 1398C1376.08 1378.81 1383.51 1358.37 1383.99 1339C1385.38 1282.08 1384 1224.94 1384 1168C1384 1139.64 1388.98 1105.99 1380 1079C1297.21 1079 1210.2 1137.77 1208.01 1227C1207.1 1264.19 1231.1 1294.86 1231.99 1331C1232.24 1341.45 1231.41 1350.75 1226.13 1360C1220.85 1369.25 1211.48 1377.36 1212.21 1389C1212.91 1400.04 1222.56 1408.13 1226.55 1418C1235.17 1439.35 1238.39 1475.24 1271 1472.67C1281.03 1471.89 1289.54 1466.7 1299 1464z"/>
<path style="fill:#5d1e1d; stroke:none;" d="M1382 1080L1382 1081L1385 1081L1382 1080z"/>
<path style="fill:#933c3b; stroke:none;" d="M1385 1080L1386 1081L1385 1080z"/>
<path style="fill:#5d1e1d; stroke:none;" d="M1389.67 1081.33L1390.33 1081.67L1389.67 1081.33z"/>
<path style="fill:#933c3b; stroke:none;" d="M1391.67 1081.33L1392.33 1081.67L1391.67 1081.33M1554.33 1081.67L1554.67 1082.33L1554.33 1081.67z"/>
<path style="fill:#5d1e1d; stroke:none;" d="M1395 1082L1395 1083L1398 1083L1395 1082z"/>
<path style="fill:#933c3b; stroke:none;" d="M1398 1082L1399 1083L1398 1082z"/>
<path style="fill:#5d1e1d; stroke:none;" d="M1401.67 1083.33L1402.33 1083.67L1401.67 1083.33z"/>
<path style="fill:#933c3b; stroke:none;" d="M1403 1083L1404 1084L1403 1083z"/>
<path style="fill:#5d1e1d; stroke:none;" d="M1407.67 1084.33L1408.33 1084.67L1407.67 1084.33z"/>
<path style="fill:#933c3b; stroke:none;" d="M1409 1084L1410 1085L1409 1084z"/>
<path style="fill:#5d1e1d; stroke:none;" d="M1412.67 1085.33L1413.33 1085.67L1412.67 1085.33z"/>
<path style="fill:#933c3b; stroke:none;" d="M1414 1085L1415 1086L1414 1085M1555 1085L1556 1086L1555 1085z"/>
<path style="fill:#5d1e1d; stroke:none;" d="M1417.67 1086.33L1418.33 1086.67L1417.67 1086.33M1421.67 1087.33L1422.33 1087.67L1421.67 1087.33z"/>
<path style="fill:#933c3b; stroke:none;" d="M1423 1087L1424 1088L1423 1087M1556 1087L1557 1088L1556 1087z"/>
<path style="fill:#5d1e1d; stroke:none;" d="M1425.67 1088.33L1426.33 1088.67L1425.67 1088.33z"/>
<path style="fill:#933c3b; stroke:none;" d="M1427 1088L1428 1089L1427 1088z"/>
<path style="fill:#5d1e1d; stroke:none;" d="M1429.67 1089.33L1430.33 1089.67L1429.67 1089.33z"/>
<path style="fill:#933c3b; stroke:none;" d="M1431 1089L1432 1090L1431 1089M1557 1089L1558 1090L1557 1089z"/>
<path style="fill:#5d1e1d; stroke:none;" d="M1433.67 1090.33L1434.33 1090.67L1433.67 1090.33z"/>
<path style="fill:#933c3b; stroke:none;" d="M1558 1090L1559 1091L1558 1090z"/>
<path style="fill:#5d1e1d; stroke:none;" d="M1437 1091L1438 1092L1437 1091z"/>
<path style="fill:#933c3b; stroke:none;" d="M1438 1091L1439 1092L1438 1091M1559 1091L1560 1092L1559 1091z"/>
<path style="fill:#5d1e1d; stroke:none;" d="M1440 1092L1441 1093L1440 1092z"/>
<path style="fill:#933c3b; stroke:none;" d="M1441 1092L1442 1093L1441 1092z"/>
<path style="fill:#5d1e1d; stroke:none;" d="M1443 1093L1444 1094L1443 1093z"/>
<path style="fill:#933c3b; stroke:none;" d="M1444 1093L1445 1094L1444 1093z"/>
<path style="fill:#5d1e1d; stroke:none;" d="M1446 1094L1447 1095L1446 1094z"/>
<path style="fill:#933c3b; stroke:none;" d="M1447 1094L1448 1095L1447 1094z"/>
<path style="fill:#5d1e1d; stroke:none;" d="M1449 1095L1450 1096L1449 1095z"/>
<path style="fill:#933c3b; stroke:none;" d="M1450 1095L1451 1096L1450 1095M1563 1095L1564 1096L1563 1095z"/>
<path style="fill:#5d1e1d; stroke:none;" d="M1452 1096L1453 1097L1452 1096z"/>
<path style="fill:#933c3b; stroke:none;" d="M1564 1096L1565 1097L1564 1096z"/>
<path style="fill:#5d1e1d; stroke:none;" d="M1454 1097L1455 1098L1454 1097z"/>
<path style="fill:#933c3b; stroke:none;" d="M1455 1097L1456 1098L1455 1097M1565 1097L1566 1098L1565 1097z"/>
<path style="fill:#5d1e1d; stroke:none;" d="M1457 1098L1458 1099L1457 1098z"/>
<path style="fill:#933c3b; stroke:none;" d="M1566 1098L1567 1099L1566 1098z"/>
<path style="fill:#5d1e1d; stroke:none;" d="M1459 1099L1460 1100L1459 1099z"/>
<path style="fill:#933c3b; stroke:none;" d="M1567 1099L1568 1100L1567 1099z"/>
<path style="fill:#5d1e1d; stroke:none;" d="M1461 1100L1462 1101L1461 1100z"/>
<path style="fill:#933c3b; stroke:none;" d="M1462 1100L1463 1101L1462 1100M1568 1100L1569 1101L1568 1100M1464 1101L1465 1102L1464 1101M1466 1102L1467 1103L1466 1102M1468 1103L1469 1104L1468 1103M1572 1103L1573 1104L1572 1103M1470 1104L1471 1105L1470 1104M1573 1104L1574 1105L1573 1104M1472 1105L1473 1106L1472 1105M1574 1105L1575 1106L1574 1105z"/>
<path style="fill:#5d1e1d; stroke:none;" d="M1473 1106L1474 1107L1473 1106z"/>
<path style="fill:#933c3b; stroke:none;" d="M1474 1106L1475 1107L1474 1106z"/>
<path style="fill:#5d1e1d; stroke:none;" d="M1475 1107L1476 1108L1475 1107M1477 1108L1478 1109L1477 1108z"/>
<path style="fill:#933c3b; stroke:none;" d="M1479 1109L1480 1110L1479 1109M1577 1109L1578 1110L1577 1109z"/>
<path style="fill:#5d1e1d; stroke:none;" d="M1480 1110L1481 1111L1480 1110z"/>
<path style="fill:#933c3b; stroke:none;" d="M1578 1110L1579 1111L1578 1110M1482 1111L1483 1112L1482 1111M1579 1111L1580 1112L1579 1111z"/>
<path style="fill:#5d1e1d; stroke:none;" d="M1483 1112L1484 1113L1483 1112z"/>
<path style="fill:#933c3b; stroke:none;" d="M1580 1112L1581 1113L1580 1112M1485 1113L1486 1114L1485 1113M1581 1113L1582 1114L1581 1113z"/>
<path style="fill:#5d1e1d; stroke:none;" d="M1486 1114L1487 1115L1486 1114z"/>
<path style="fill:#933c3b; stroke:none;" d="M1582 1114L1583 1115L1582 1114M1488 1115L1489 1116L1488 1115M1583 1115L1584 1116L1583 1115z"/>
<path style="fill:#5d1e1d; stroke:none;" d="M1489 1116L1490 1117L1489 1116z"/>
<path style="fill:#933c3b; stroke:none;" d="M1584 1116L1585 1117L1584 1116z"/>
<path style="fill:#5d1e1d; stroke:none;" d="M1490 1117L1491 1118L1490 1117z"/>
<path style="fill:#933c3b; stroke:none;" d="M1585 1117L1586 1118L1585 1117M1654.67 1117.33L1655.33 1117.67L1654.67 1117.33M1492 1118L1493 1119L1492 1118M1586 1118L1587 1119L1586 1118M1652 1118L1653 1119L1652 1118z"/>
<path style="fill:#5d1e1d; stroke:none;" d="M1493 1119L1494 1120L1493 1119z"/>
<path style="fill:#933c3b; stroke:none;" d="M1587 1119L1588 1120L1587 1119M1649.67 1119.33L1650.33 1119.67L1649.67 1119.33M1657 1119L1658 1120L1657 1119z"/>
<path style="fill:#5d1e1d; stroke:none;" d="M1494 1120L1495 1121L1494 1120z"/>
<path style="fill:#933c3b; stroke:none;" d="M1588 1120L1589 1121L1588 1120M1647 1120L1648 1121L1647 1120M1658 1120L1659 1121L1658 1120M1589 1121L1590 1122L1589 1121M1645 1121L1646 1122L1645 1121M1659 1121L1660 1122L1659 1121M1497 1122L1498 1123L1497 1122M1590 1122L1591 1123L1590 1122M1643 1122L1644 1123L1643 1122M1660 1122L1661 1123L1660 1122M1498 1123L1499 1124L1498 1123M1641 1123L1642 1124L1641 1123z"/>
<path style="fill:#5d1e1d; stroke:none;" d="M1499 1124L1500 1125L1499 1124z"/>
<path style="fill:#933c3b; stroke:none;" d="M1639 1124L1640 1125L1639 1124M1661 1124L1662 1125L1661 1124z"/>
<path style="fill:#5d1e1d; stroke:none;" d="M1500 1125L1501 1126L1500 1125z"/>
<path style="fill:#933c3b; stroke:none;" d="M1594 1125L1595 1126L1594 1125M1637 1125L1638 1126L1637 1125M1662 1125L1663 1126L1662 1125z"/>
<path style="fill:#5d1e1d; stroke:none;" d="M1501 1126L1502 1127L1501 1126z"/>
<path style="fill:#933c3b; stroke:none;" d="M1595 1126L1596 1127L1595 1126M1634.67 1126.33L1635.33 1126.67L1634.67 1126.33M1663 1126L1664 1127L1663 1126z"/>
<path style="fill:#5d1e1d; stroke:none;" d="M1502 1127L1503 1128L1502 1127z"/>
<path style="fill:#933c3b; stroke:none;" d="M1596 1127L1597 1128L1596 1127M1632.67 1127.33L1633.33 1127.67L1632.67 1127.33z"/>
<path style="fill:#5d1e1d; stroke:none;" d="M1503 1128L1504 1129L1503 1128z"/>
<path style="fill:#933c3b; stroke:none;" d="M1597 1128L1598 1129L1597 1128M1630.67 1128.33L1631.33 1128.67L1630.67 1128.33M1664 1128L1665 1129L1664 1128z"/>
<path style="fill:#5d1e1d; stroke:none;" d="M1504 1129L1505 1130L1504 1129z"/>
<path style="fill:#933c3b; stroke:none;" d="M1599 1129L1600 1130L1599 1129M1628 1129L1629 1130L1628 1129M1665 1129L1666 1130L1665 1129M1600 1130L1601 1131L1600 1130M1625.67 1130.33L1626.33 1130.67L1625.67 1130.33M1602 1131L1603 1132L1602 1131M1623.67 1131.33L1624.33 1131.67L1623.67 1131.33M1666 1131L1667 1132L1666 1131M1603.67 1132.33L1604.33 1132.67L1603.67 1132.33M1620.67 1132.33L1621.33 1132.67L1620.67 1132.33M1667.33 1132.67L1667.67 1133.33L1667.33 1132.67z"/>
<path style="fill:#5d1e1d; stroke:none;" d="M1508 1133L1509 1134L1508 1133z"/>
<path style="fill:#933c3b; stroke:none;" d="M1606.67 1133.33L1607.33 1133.67L1606.67 1133.33M1616 1133L1616 1134L1619 1134L1616 1133z"/>
<path style="fill:#5d1e1d; stroke:none;" d="M1509 1134L1510 1135L1509 1134z"/>
<path style="fill:#933c3b; stroke:none;" d="M1668 1134L1669 1135L1668 1134z"/>
<path style="fill:#5d1e1d; stroke:none;" d="M1510 1135L1511 1136L1510 1135M1511 1136L1512 1137L1511 1136z"/>
<path style="fill:#933c3b; stroke:none;" d="M1669 1136L1670 1137L1669 1136z"/>
<path style="fill:#5d1e1d; stroke:none;" d="M1512 1137L1513 1138L1512 1137M1513 1138L1514 1139L1513 1138z"/>
<path style="fill:#933c3b; stroke:none;" d="M1670 1138L1671 1139L1670 1138M1514 1139L1515 1140L1514 1139M1671.33 1139.67L1671.67 1140.33L1671.33 1139.67M1515 1140L1516 1141L1515 1140M1516 1141L1517 1142L1516 1141M1672.33 1141.67L1672.67 1142.33L1672.33 1141.67z"/>
<path style="fill:#5d1e1d; stroke:none;" d="M1517 1143L1518 1144L1517 1143z"/>
<path style="fill:#933c3b; stroke:none;" d="M1673 1143L1674 1144L1673 1143z"/>
<path style="fill:#5d1e1d; stroke:none;" d="M1518 1144L1519 1145L1518 1144z"/>
<path style="fill:#933c3b; stroke:none;" d="M1519 1145L1520 1146L1519 1145M1674 1145L1675 1146L1674 1145M1520 1146L1521 1147L1520 1146M1675 1147L1676 1148L1675 1147z"/>
<path style="fill:#5d1e1d; stroke:none;" d="M1521 1148L1522 1149L1521 1148z"/>
<path style="fill:#933c3b; stroke:none;" d="M1522 1149L1523 1150L1522 1149M1676 1149L1677 1150L1676 1149M1523 1150L1524 1151L1523 1150M1677.33 1150.67L1677.67 1151.33L1677.33 1150.67z"/>
<path style="fill:#5d1e1d; stroke:none;" d="M1523 1151L1524 1152L1523 1151M1524 1152L1525 1153L1524 1152z"/>
<path style="fill:#933c3b; stroke:none;" d="M1678.33 1152.67L1678.67 1153.33L1678.33 1152.67M1525 1153L1526 1154L1525 1153M1679 1154L1680 1155L1679 1154z"/>
<path style="fill:#5d1e1d; stroke:none;" d="M1526 1155L1527 1156L1526 1155z"/>
<path style="fill:#933c3b; stroke:none;" d="M1527 1156L1528 1157L1527 1156M1680 1156L1681 1157L1680 1156z"/>
<path style="fill:#5d1e1d; stroke:none;" d="M1527 1157L1528 1158L1527 1157z"/>
<path style="fill:#933c3b; stroke:none;" d="M1681.33 1157.67L1681.67 1158.33L1681.33 1157.67z"/>
<path style="fill:#5d1e1d; stroke:none;" d="M1528 1158L1529 1159L1528 1158z"/>
<path style="fill:#933c3b; stroke:none;" d="M1682 1159L1683 1160L1682 1159z"/>
<path style="fill:#5d1e1d; stroke:none;" d="M1529 1160L1530 1161L1529 1160z"/>
<path style="fill:#933c3b; stroke:none;" d="M1530 1161L1531 1162L1530 1161M1683 1161L1684 1162L1683 1161M1684 1162L1685 1163L1684 1162z"/>
<path style="fill:#5d1e1d; stroke:none;" d="M1531 1163L1532 1164L1531 1163z"/>
<path style="fill:#933c3b; stroke:none;" d="M1685 1164L1686 1165L1685 1164z"/>
<path style="fill:#5d1e1d; stroke:none;" d="M1532 1165L1533 1166L1532 1165z"/>
<path style="fill:#933c3b; stroke:none;" d="M1686 1165L1687 1166L1686 1165M1533 1166L1534 1167L1533 1166M1687 1166L1688 1167L1687 1166z"/>
<path style="fill:#5d1e1d; stroke:none;" d="M1533 1167L1534 1168L1533 1167z"/>
<path style="fill:#933c3b; stroke:none;" d="M1534 1168L1535 1169L1534 1168M1687 1168L1688 1169L1687 1168z"/>
<path style="fill:#5d1e1d; stroke:none;" d="M1534 1169L1535 1170L1534 1169z"/>
<path style="fill:#933c3b; stroke:none;" d="M1686 1169L1687 1170L1686 1169M1535 1170L1536 1171L1535 1170M1684 1170L1685 1171L1684 1170z"/>
<path style="fill:#5d1e1d; stroke:none;" d="M1535 1171L1536 1172L1535 1171z"/>
<path style="fill:#933c3b; stroke:none;" d="M1682.67 1171.33L1683.33 1171.67L1682.67 1171.33M1536 1172L1537 1173L1536 1172M1681 1172L1682 1173L1681 1172z"/>
<path style="fill:#5d1e1d; stroke:none;" d="M1536 1173L1537 1174L1536 1173z"/>
<path style="fill:#933c3b; stroke:none;" d="M1679 1173L1680 1174L1679 1173M1537 1174L1538 1175L1537 1174M1678 1174L1679 1175L1678 1174z"/>
<path style="fill:#5d1e1d; stroke:none;" d="M1537 1175L1538 1176L1537 1175z"/>
<path style="fill:#933c3b; stroke:none;" d="M1676 1175L1677 1176L1676 1175M1538 1176L1539 1177L1538 1176M1675 1176L1676 1177L1675 1176z"/>
<path style="fill:#5d1e1d; stroke:none;" d="M1538 1177L1539 1178L1538 1177z"/>
<path style="fill:#933c3b; stroke:none;" d="M1673 1177L1674 1178L1673 1177M1671 1178L1672 1179L1671 1178z"/>
<path style="fill:#5d1e1d; stroke:none;" d="M1539 1179L1540 1180L1539 1179z"/>
<path style="fill:#933c3b; stroke:none;" d="M1670 1179L1671 1180L1670 1179M1668 1180L1669 1181L1668 1180M1540 1181L1541 1182L1540 1181M1667 1181L1668 1182L1667 1181z"/>
<path style="fill:#5d1e1d; stroke:none;" d="M1540 1182L1541 1183L1540 1182z"/>
<path style="fill:#933c3b; stroke:none;" d="M1665 1182L1666 1183L1665 1182M1541 1183L1542 1184L1541 1183M1663 1183L1664 1184L1663 1183z"/>
<path style="fill:#5d1e1d; stroke:none;" d="M1541 1184L1542 1185L1541 1184z"/>
<path style="fill:#933c3b; stroke:none;" d="M1662 1184L1663 1185L1662 1184M1660 1185L1661 1186L1660 1185M1542 1186L1543 1187L1542 1186M1658.67 1186.33L1659.33 1186.67L1658.67 1186.33z"/>
<path style="fill:#5d1e1d; stroke:none;" d="M1542 1187L1543 1188L1542 1187z"/>
<path style="fill:#933c3b; stroke:none;" d="M1657 1187L1658 1188L1657 1187M1655 1188L1656 1189L1655 1188M1543 1189L1544 1190L1543 1189M1653.67 1189.33L1654.33 1189.67L1653.67 1189.33z"/>
<path style="fill:#5d1e1d; stroke:none;" d="M1543 1190L1544 1191L1543 1190z"/>
<path style="fill:#933c3b; stroke:none;" d="M1652 1190L1653 1191L1652 1190M1650 1191L1651 1192L1650 1191M1544 1192L1545 1193L1544 1192M1648.67 1192.33L1649.33 1192.67L1648.67 1192.33z"/>
<path style="fill:#5d1e1d; stroke:none;" d="M1544 1193L1545 1194L1544 1193z"/>
<path style="fill:#933c3b; stroke:none;" d="M1647 1193L1648 1194L1647 1193M1646 1194L1647 1195L1646 1194M1545 1195L1546 1196L1545 1195M1645 1195L1646 1196L1645 1195z"/>
<path style="fill:#5d1e1d; stroke:none;" d="M1545.33 1196.67L1545.67 1197.33L1545.33 1196.67z"/>
<path style="fill:#933c3b; stroke:none;" d="M1644 1196L1645 1197L1644 1196M1643 1197L1644 1198L1643 1197M1546 1199L1547 1200L1546 1199M1642 1199L1642 1202L1643 1202L1642 1199z"/>
<path style="fill:#5d1e1d; stroke:none;" d="M1546.33 1200.67L1546.67 1201.33L1546.33 1200.67z"/>
<path style="fill:#933c3b; stroke:none;" d="M1547 1203L1548 1204L1547 1203z"/>
<path style="fill:#5d1e1d; stroke:none;" d="M1547.33 1204.67L1547.67 1205.33L1547.33 1204.67z"/>
<path style="fill:#933c3b; stroke:none;" d="M1642 1204L1642 1207L1643 1207L1642 1204M1548.33 1207.67L1548.67 1208.33L1548.33 1207.67M1643.33 1208.67L1643.67 1209.33L1643.33 1208.67z"/>
<path style="fill:#5d1e1d; stroke:none;" d="M1548.33 1209.67L1548.67 1210.33L1548.33 1209.67z"/>
<path style="fill:#933c3b; stroke:none;" d="M1644.33 1211.67L1644.67 1212.33L1644.33 1211.67M1549 1213L1549 1216L1550 1216L1549 1213M1645.33 1214.67L1645.67 1215.33L1645.33 1214.67z"/>
<path style="fill:#5d1e1d; stroke:none;" d="M1549 1216L1549 1219L1550 1219L1549 1216z"/>
<path style="fill:#933c3b; stroke:none;" d="M1646.33 1218.67L1646.67 1219.33L1646.33 1218.67M1647.33 1221.67L1647.67 1222.33L1647.33 1221.67M1550 1222L1550 1228L1551 1228L1550 1222M1648.33 1225.67L1648.67 1226.33L1648.33 1225.67z"/>
<path style="fill:#5d1e1d; stroke:none;" d="M1550 1228L1550 1235L1551 1235L1550 1228z"/>
<path style="fill:#933c3b; stroke:none;" d="M1649 1228L1649 1231L1650 1231L1649 1228M1650 1232L1650 1235L1651 1235L1650 1232M1550 1235L1550 1241L1551 1241L1550 1235M1651.33 1237.67L1651.67 1238.33L1651.33 1237.67M1652 1241L1652 1244L1653 1244L1652 1241z"/>
<path style="fill:#5d1e1d; stroke:none;" d="M1549 1245L1549 1248L1550 1248L1549 1245z"/>
<path style="fill:#933c3b; stroke:none;" d="M1653 1246L1653 1249L1654 1249L1653 1246M1549.33 1248.67L1549.67 1249.33L1549.33 1248.67z"/>
<path style="fill:#5d1e1d; stroke:none;" d="M1548.33 1252.67L1548.67 1253.33L1548.33 1252.67z"/>
<path style="fill:#933c3b; stroke:none;" d="M1654 1252L1654 1255L1655 1255L1654 1252M1548.33 1254.67L1548.67 1255.33L1548.33 1254.67M1655 1256L1655 1259L1656 1259L1655 1256z"/>
<path style="fill:#5d1e1d; stroke:none;" d="M1547.33 1257.67L1547.67 1258.33L1547.33 1257.67z"/>
<path style="fill:#933c3b; stroke:none;" d="M1547 1259L1548 1260L1547 1259M1656.33 1260.67L1656.67 1261.33L1656.33 1260.67z"/>
<path style="fill:#5d1e1d; stroke:none;" d="M1546.33 1261.67L1546.67 1262.33L1546.33 1261.67z"/>
<path style="fill:#933c3b; stroke:none;" d="M1546 1263L1547 1264L1546 1263M1657 1263L1658 1264L1657 1263z"/>
<path style="fill:#5d1e1d; stroke:none;" d="M1545.33 1265.67L1545.67 1266.33L1545.33 1265.67z"/>
<path style="fill:#933c3b; stroke:none;" d="M1658 1265L1659 1266L1658 1265M1659 1267L1660 1268L1659 1267z"/>
<path style="fill:#5d1e1d; stroke:none;" d="M1544.33 1268.67L1544.67 1269.33L1544.33 1268.67z"/>
<path style="fill:#933c3b; stroke:none;" d="M1660 1268L1661 1269L1660 1268M1661 1270L1662 1271L1661 1270M1662 1271L1663 1272L1662 1271z"/>
<path style="fill:#5d1e1d; stroke:none;" d="M1543 1272L1544 1273L1543 1272z"/>
<path style="fill:#933c3b; stroke:none;" d="M1663 1272L1664 1273L1663 1272M1665 1273L1666 1274L1665 1273z"/>
<path style="fill:#5d1e1d; stroke:none;" d="M1542 1274L1543 1275L1542 1274z"/>
<path style="fill:#933c3b; stroke:none;" d="M1666 1274L1667 1275L1666 1274M1542 1275L1543 1276L1542 1275M1668.67 1275.33L1669.33 1275.67L1668.67 1275.33M1690 1275L1690 1276L1707 1276L1690 1275M1671 1276L1671 1277L1674 1277L1671 1276M1683 1276L1683 1277L1686 1277L1683 1276z"/>
<path style="fill:#5d1e1d; stroke:none;" d="M1541 1277L1542 1278L1541 1277z"/>
<path style="fill:#933c3b; stroke:none;" d="M1714 1277L1715 1278L1714 1277z"/>
<path style="fill:#5d1e1d; stroke:none;" d="M1540 1279L1541 1280L1540 1279z"/>
<path style="fill:#933c3b; stroke:none;" d="M1715 1279L1716 1280L1715 1279M1540 1280L1541 1281L1540 1280M1716 1281L1717 1282L1716 1281M1539 1282L1540 1283L1539 1282M1717 1283L1718 1284L1717 1283z"/>
<path style="fill:#5d1e1d; stroke:none;" d="M1538 1284L1539 1285L1538 1284z"/>
<path style="fill:#933c3b; stroke:none;" d="M1718.33 1285.67L1718.67 1286.33L1718.33 1285.67z"/>
<path style="fill:#5d1e1d; stroke:none;" d="M1537 1286L1538 1287L1537 1286z"/>
<path style="fill:#933c3b; stroke:none;" d="M1537 1287L1538 1288L1537 1287z"/>
<path style="fill:#5d1e1d; stroke:none;" d="M1536 1289L1537 1290L1536 1289z"/>
<path style="fill:#933c3b; stroke:none;" d="M1719.33 1289.67L1719.67 1290.33L1719.33 1289.67M1536 1290L1537 1291L1536 1290z"/>
<path style="fill:#5d1e1d; stroke:none;" d="M1535 1292L1536 1293L1535 1292z"/>
<path style="fill:#933c3b; stroke:none;" d="M1720 1294L1720 1298L1721 1298L1720 1294z"/>
<path style="fill:#5d1e1d; stroke:none;" d="M1534 1295L1535 1296L1534 1295z"/>
<path style="fill:#933c3b; stroke:none;" d="M1534 1296L1535 1297L1534 1296z"/>
<path style="fill:#5d1e1d; stroke:none;" d="M1533 1298L1534 1299L1533 1298z"/>
<path style="fill:#933c3b; stroke:none;" d="M1533 1299L1534 1300L1533 1299z"/>
<path style="fill:#5d1e1d; stroke:none;" d="M1532.33 1301.67L1532.67 1302.33L1532.33 1301.67M1531 1305L1532 1306L1531 1305z"/>
<path style="fill:#933c3b; stroke:none;" d="M1531 1306L1532 1307L1531 1306z"/>
<path style="fill:#5d1e1d; stroke:none;" d="M1530 1309L1531 1310L1530 1309z"/>
<path style="fill:#933c3b; stroke:none;" d="M1530 1310L1531 1311L1530 1310z"/>
<path style="fill:#5d1e1d; stroke:none;" d="M1529.33 1313.67L1529.67 1314.33L1529.33 1313.67z"/>
<path style="fill:#933c3b; stroke:none;" d="M1529 1315L1530 1316L1529 1315z"/>
<path style="fill:#5d1e1d; stroke:none;" d="M1528.33 1317.67L1528.67 1318.33L1528.33 1317.67z"/>
<path style="fill:#933c3b; stroke:none;" d="M1528 1319L1529 1320L1528 1319M1720 1320L1720 1331L1721 1331L1720 1320z"/>
<path style="fill:#5d1e1d; stroke:none;" d="M1527 1322L1528 1323L1527 1322z"/>
<path style="fill:#933c3b; stroke:none;" d="M1527 1323L1528 1324L1527 1323z"/>
<path style="fill:#5d1e1d; stroke:none;" d="M1526.33 1326.67L1526.67 1327.33L1526.33 1326.67z"/>
<path style="fill:#933c3b; stroke:none;" d="M1526 1328L1527 1329L1526 1328z"/>
<path style="fill:#5d1e1d; stroke:none;" d="M1525.33 1330.67L1525.67 1331.33L1525.33 1330.67z"/>
<path style="fill:#933c3b; stroke:none;" d="M1525.33 1332.67L1525.67 1333.33L1525.33 1332.67M1719.33 1333.67L1719.67 1334.33L1719.33 1333.67M1718.33 1335.67L1718.67 1336.33L1718.33 1335.67M1717 1337L1718 1338L1717 1337M1716 1338L1717 1339L1716 1338M1715 1339L1716 1340L1715 1339M1525 1340L1525 1343L1526 1343L1525 1340M1713 1340L1714 1341L1713 1340M1710.67 1341.33L1711.33 1341.67L1710.67 1341.33M1689 1342L1689 1343L1708 1343L1689 1342z"/>
<path style="fill:#5d1e1d; stroke:none;" d="M1525.33 1343.67L1525.67 1344.33L1525.33 1343.67z"/>
<path style="fill:#933c3b; stroke:none;" d="M1676 1343L1676 1344L1681 1344L1676 1343M1672.67 1344.33L1673.33 1344.67L1672.67 1344.33M1670 1345L1671 1346L1670 1345M1526 1346L1527 1347L1526 1346M1668 1346L1669 1347L1668 1346z"/>
<path style="fill:#5d1e1d; stroke:none;" d="M1526 1347L1527 1348L1526 1347z"/>
<path style="fill:#933c3b; stroke:none;" d="M1666 1347L1667 1348L1666 1347M1665 1348L1666 1349L1665 1348M1527 1349L1528 1350L1527 1349M1664 1349L1665 1350L1664 1349z"/>
<path style="fill:#5d1e1d; stroke:none;" d="M1527 1350L1528 1351L1527 1350z"/>
<path style="fill:#933c3b; stroke:none;" d="M1663 1350L1664 1351L1663 1350M1528 1351L1529 1352L1528 1351z"/>
<path style="fill:#5d1e1d; stroke:none;" d="M1528 1352L1529 1353L1528 1352z"/>
<path style="fill:#933c3b; stroke:none;" d="M1662 1352L1663 1353L1662 1352M1529 1353L1530 1354L1529 1353M1661.33 1353.67L1661.67 1354.33L1661.33 1353.67z"/>
<path style="fill:#5d1e1d; stroke:none;" d="M1529 1354L1530 1355L1529 1354z"/>
<path style="fill:#434343; stroke:none;" d="M1474 1355.53C1465.91 1357.39 1458.75 1363.19 1451 1366.19C1439.21 1370.76 1426.49 1372.99 1415 1378.31C1409.82 1380.71 1401.32 1385.71 1400.33 1391.99C1399.34 1398.24 1412.69 1402.97 1417 1405.31C1434.7 1414.9 1458.15 1426.93 1479 1422.48C1496.74 1418.7 1509.78 1393.41 1506.67 1376C1504.24 1362.41 1487.07 1352.53 1474 1355.53z"/>
<path style="fill:#5d1e1d; stroke:none;" d="M1530 1355L1531 1356L1530 1355z"/>
<path style="fill:#933c3b; stroke:none;" d="M1660.33 1355.67L1660.67 1356.33L1660.33 1355.67M1531 1356L1532 1357L1531 1356z"/>
<path style="fill:#5d1e1d; stroke:none;" d="M1532 1358L1533 1359L1532 1358z"/>
<path style="fill:#933c3b; stroke:none;" d="M1659 1358L1660 1359L1659 1358z"/>
<path style="fill:#040404; stroke:none;" d="M1360 1394C1353.32 1379.67 1339.92 1380.92 1327 1376.81C1312.21 1372.1 1294.88 1357.61 1279 1359.3C1248.73 1362.54 1254.8 1403.95 1274 1417.35C1286.19 1425.85 1306.68 1415.77 1319 1411.67C1333.27 1406.91 1346.19 1399.75 1360 1394z"/>
<path style="fill:#5d1e1d; stroke:none;" d="M1533 1359L1534 1360L1533 1359z"/>
<path style="fill:#933c3b; stroke:none;" d="M1534 1360L1535 1361L1534 1360M1658.33 1360.67L1658.67 1361.33L1658.33 1360.67z"/>
<path style="fill:#5d1e1d; stroke:none;" d="M1535 1362L1536 1363L1535 1362M1536 1363L1537 1364L1536 1363z"/>
<path style="fill:#933c3b; stroke:none;" d="M1657.33 1363.67L1657.67 1364.33L1657.33 1363.67M1537 1364L1538 1365L1537 1364z"/>
<path style="fill:#5d1e1d; stroke:none;" d="M1538 1366L1539 1367L1538 1366z"/>
<path style="fill:#933c3b; stroke:none;" d="M1656 1366L1657 1367L1656 1366z"/>
<path style="fill:#5d1e1d; stroke:none;" d="M1539 1368L1540 1369L1539 1368z"/>
<path style="fill:#933c3b; stroke:none;" d="M1540 1369L1541 1370L1540 1369M1655.33 1369.67L1655.67 1370.33L1655.33 1369.67z"/>
<path style="fill:#5d1e1d; stroke:none;" d="M1540 1370L1541 1371L1540 1370z"/>
<path style="fill:#933c3b; stroke:none;" d="M1541 1371L1542 1372L1541 1371z"/>
<path style="fill:#5d1e1d; stroke:none;" d="M1541 1372L1542 1373L1541 1372z"/>
<path style="fill:#933c3b; stroke:none;" d="M1654.33 1372.67L1654.67 1373.33L1654.33 1372.67z"/>
<path style="fill:#5d1e1d; stroke:none;" d="M1542 1374L1543 1375L1542 1374z"/>
<path style="fill:#933c3b; stroke:none;" d="M1653.33 1375.67L1653.67 1376.33L1653.33 1375.67z"/>
<path style="fill:#5d1e1d; stroke:none;" d="M1543.33 1377.67L1543.67 1378.33L1543.33 1377.67z"/>
<path style="fill:#933c3b; stroke:none;" d="M1652.33 1378.67L1652.67 1379.33L1652.33 1378.67M1544 1381L1545 1382L1544 1381z"/>
<path style="fill:#5d1e1d; stroke:none;" d="M1544 1382L1544 1392L1545 1392L1544 1382z"/>
<path style="fill:#933c3b; stroke:none;" d="M1651.33 1382.67L1651.67 1383.33L1651.33 1382.67M1650.33 1385.67L1650.67 1386.33L1650.33 1385.67M1649.33 1389.67L1649.67 1390.33L1649.33 1389.67M1544 1392L1545 1393L1544 1392M1648.33 1392.67L1648.67 1393.33L1648.33 1392.67z"/>
<path style="fill:#5d1e1d; stroke:none;" d="M1543 1395L1544 1396L1543 1395z"/>
<path style="fill:#933c3b; stroke:none;" d="M1543 1396L1544 1397L1543 1396M1647.33 1396.67L1647.67 1397.33L1647.33 1396.67z"/>
<path style="fill:#5d1e1d; stroke:none;" d="M1542 1398L1543 1399L1542 1398z"/>
<path style="fill:#933c3b; stroke:none;" d="M1542 1399L1543 1400L1542 1399M1646 1399L1646 1402L1647 1402L1646 1399z"/>
<path style="fill:#5d1e1d; stroke:none;" d="M1541 1401L1542 1402L1541 1401M1540 1403L1541 1404L1540 1403z"/>
<path style="fill:#933c3b; stroke:none;" d="M1645 1404L1645 1408L1646 1408L1645 1404z"/>
<path style="fill:#5d1e1d; stroke:none;" d="M1539 1405L1540 1406L1539 1405z"/>
<path style="fill:#933c3b; stroke:none;" d="M1538 1407L1539 1408L1538 1407z"/>
<path style="fill:#5d1e1d; stroke:none;" d="M1537 1408L1538 1409L1537 1408M1536 1410L1537 1411L1536 1410M1535 1411L1536 1412L1535 1411z"/>
<path style="fill:#933c3b; stroke:none;" d="M1534 1413L1535 1414L1534 1413z"/>
<path style="fill:#5d1e1d; stroke:none;" d="M1533 1414L1534 1415L1533 1414M1532 1416L1533 1417L1532 1416z"/>
<path style="fill:#933c3b; stroke:none;" d="M1645.33 1416.67L1645.67 1417.33L1645.33 1416.67M1532 1417L1533 1418L1532 1417z"/>
<path style="fill:#5d1e1d; stroke:none;" d="M1531 1419L1532 1420L1531 1419z"/>
<path style="fill:#933c3b; stroke:none;" d="M1531 1420L1532 1421L1531 1420M1646 1420L1647 1421L1646 1420z"/>
<path style="fill:#5d1e1d; stroke:none;" d="M1530.33 1422.67L1530.67 1423.33L1530.33 1422.67z"/>
<path style="fill:#933c3b; stroke:none;" d="M1647 1422L1648 1423L1647 1422M1648 1423L1649 1424L1648 1423M1530 1424L1531 1425L1530 1424M1649 1425L1650 1426L1649 1425z"/>
<path style="fill:#5d1e1d; stroke:none;" d="M1529.33 1426.67L1529.67 1427.33L1529.33 1426.67z"/>
<path style="fill:#933c3b; stroke:none;" d="M1650 1426L1651 1427L1650 1426M1651 1427L1652 1428L1651 1427M1529.33 1428.67L1529.67 1429.33L1529.33 1428.67M1652 1428L1653 1429L1652 1428M1653 1429L1654 1430L1653 1429M1654 1430L1655 1431L1654 1430M1656 1431L1657 1432L1656 1431z"/>
<path style="fill:#5d1e1d; stroke:none;" d="M1528 1432L1529 1433L1528 1432z"/>
<path style="fill:#933c3b; stroke:none;" d="M1657 1432L1658 1433L1657 1432M1528 1433L1529 1434L1528 1433M1658 1433L1659 1434L1658 1433M1660 1434L1661 1435L1660 1434M1661 1435L1662 1436L1661 1435z"/>
<path style="fill:#5d1e1d; stroke:none;" d="M1527 1436L1528 1437L1527 1436z"/>
<path style="fill:#933c3b; stroke:none;" d="M1662 1436L1663 1437L1662 1436M1527 1437L1528 1438L1527 1437M1664 1437L1665 1438L1664 1437M1665 1438L1666 1439L1665 1438z"/>
<path style="fill:#5d1e1d; stroke:none;" d="M1526 1439L1527 1440L1526 1439z"/>
<path style="fill:#933c3b; stroke:none;" d="M1667 1439L1668 1440L1667 1439M1526 1440L1527 1441L1526 1440M1668 1440L1669 1441L1668 1440M1670 1441L1671 1442L1670 1441z"/>
<path style="fill:#5d1e1d; stroke:none;" d="M1525 1442L1526 1443L1525 1442z"/>
<path style="fill:#933c3b; stroke:none;" d="M1671 1442L1672 1443L1671 1442M1525 1443L1526 1444L1525 1443M1673 1443L1674 1444L1673 1443M1674 1444L1675 1445L1674 1444z"/>
<path style="fill:#5d1e1d; stroke:none;" d="M1524 1445L1525 1446L1524 1445z"/>
<path style="fill:#933c3b; stroke:none;" d="M1676 1445L1677 1446L1676 1445M1678 1446L1679 1447L1678 1446z"/>
<path style="fill:#5d1e1d; stroke:none;" d="M1523 1447L1524 1448L1523 1447z"/>
<path style="fill:#933c3b; stroke:none;" d="M1680 1447L1681 1448L1680 1447M1523 1448L1524 1449L1523 1448M1682 1448L1683 1449L1682 1448z"/>
<path style="fill:#5d1e1d; stroke:none;" d="M1522 1449L1523 1450L1522 1449z"/>
<path style="fill:#933c3b; stroke:none;" d="M1683 1449L1684 1450L1683 1449M1522 1450L1523 1451L1522 1450M1685 1450L1686 1451L1685 1450z"/>
<path style="fill:#5d1e1d; stroke:none;" d="M1521 1451L1522 1452L1521 1451z"/>
<path style="fill:#933c3b; stroke:none;" d="M1686.33 1451.67L1686.67 1452.33L1686.33 1451.67M1520 1453L1521 1454L1520 1453z"/>
<path style="fill:#5d1e1d; stroke:none;" d="M1519 1454L1520 1455L1519 1454z"/>
<path style="fill:#933c3b; stroke:none;" d="M1685 1454L1686 1455L1685 1454M1518 1456L1519 1457L1518 1456M1684.33 1456.67L1684.67 1457.33L1684.33 1456.67M1517 1457L1518 1458L1517 1457z"/>
<path style="fill:#5d1e1d; stroke:none;" d="M1516 1458L1517 1459L1516 1458z"/>
<path style="fill:#933c3b; stroke:none;" d="M1683.33 1458.67L1683.67 1459.33L1683.33 1458.67z"/>
<path style="fill:#5d1e1d; stroke:none;" d="M1515 1459L1516 1460L1515 1459z"/>
<path style="fill:#933c3b; stroke:none;" d="M1514 1460L1515 1461L1514 1460M1682.33 1460.67L1682.67 1461.33L1682.33 1460.67z"/>
<path style="fill:#5d1e1d; stroke:none;" d="M1511 1462L1512 1463L1511 1462z"/>
<path style="fill:#933c3b; stroke:none;" d="M1681.33 1462.67L1681.67 1463.33L1681.33 1462.67M1510 1463L1511 1464L1510 1463z"/>
<path style="fill:#5d1e1d; stroke:none;" d="M1508 1464L1509 1465L1508 1464M1466 1465L1466 1466L1470 1466L1466 1465M1505 1465L1506 1466L1505 1465z"/>
<path style="fill:#933c3b; stroke:none;" d="M1506 1465L1507 1466L1506 1465M1680 1465L1681 1466L1680 1465z"/>
<path style="fill:#5d1e1d; stroke:none;" d="M1461 1466L1462 1467L1461 1466z"/>
<path style="fill:#933c3b; stroke:none;" d="M1473 1466L1474 1467L1473 1466z"/>
<path style="fill:#5d1e1d; stroke:none;" d="M1474 1466L1475 1467L1474 1466M1502.67 1466.33L1503.33 1466.67L1502.67 1466.33M1460 1467L1461 1468L1460 1467z"/>
<path style="fill:#933c3b; stroke:none;" d="M1478 1467L1479 1468L1478 1467z"/>
<path style="fill:#5d1e1d; stroke:none;" d="M1479.67 1467.33L1480.33 1467.67L1479.67 1467.33M1498.67 1467.33L1499.33 1467.67L1498.67 1467.33z"/>
<path style="fill:#933c3b; stroke:none;" d="M1679 1467L1680 1468L1679 1467M1488 1468L1488 1469L1492 1469L1488 1468M1461 1469L1462 1470L1461 1469M1678 1469L1679 1470L1678 1469z"/>
<path style="fill:#5d1e1d; stroke:none;" d="M1461.33 1470.67L1461.67 1471.33L1461.33 1470.67z"/>
<path style="fill:#933c3b; stroke:none;" d="M1677 1471L1678 1472L1677 1471M1462 1473L1463 1474L1462 1473M1676 1473L1677 1474L1676 1473z"/>
<path style="fill:#5d1e1d; stroke:none;" d="M1462 1474L1463 1475L1462 1474z"/>
<path style="fill:#933c3b; stroke:none;" d="M1675 1475L1676 1476L1675 1475M1463 1476L1464 1477L1463 1476M1674.33 1476.67L1674.67 1477.33L1674.33 1476.67z"/>
<path style="fill:#5d1e1d; stroke:none;" d="M1463 1477L1464 1478L1463 1477z"/>
<path style="fill:#933c3b; stroke:none;" d="M1673 1478L1674 1479L1673 1478M1464 1479L1465 1480L1464 1479z"/>
<path style="fill:#5d1e1d; stroke:none;" d="M1464.33 1480.67L1464.67 1481.33L1464.33 1480.67z"/>
<path style="fill:#933c3b; stroke:none;" d="M1672 1480L1673 1481L1672 1480M1671.33 1481.67L1671.67 1482.33L1671.33 1481.67M1465 1483L1466 1484L1465 1483M1670 1483L1671 1484L1670 1483z"/>
<path style="fill:#5d1e1d; stroke:none;" d="M1465 1484L1466 1485L1465 1484z"/>
<path style="fill:#933c3b; stroke:none;" d="M1609 1484L1609 1485L1614 1485L1609 1484M1604.67 1485.33L1605.33 1485.67L1604.67 1485.33M1616 1485L1616 1486L1619 1486L1616 1485M1669 1485L1670 1486L1669 1485M1466 1486L1467 1487L1466 1486M1602.67 1486.33L1603.33 1486.67L1602.67 1486.33M1620.67 1486.33L1621.33 1486.67L1620.67 1486.33M1668 1486L1669 1487L1668 1486z"/>
<path style="fill:#5d1e1d; stroke:none;" d="M1466.33 1487.67L1466.67 1488.33L1466.33 1487.67z"/>
<path style="fill:#933c3b; stroke:none;" d="M1600 1487L1601 1488L1600 1487M1622.67 1487.33L1623.33 1487.67L1622.67 1487.33M1667.33 1487.67L1667.67 1488.33L1667.33 1487.67M1598 1488L1599 1489L1598 1488M1624.67 1488.33L1625.33 1488.67L1624.67 1488.33M1597 1489L1598 1490L1597 1489M1626.67 1489.33L1627.33 1489.67L1626.67 1489.33M1666 1489L1667 1490L1666 1489M1467 1490L1468 1491L1467 1490M1595 1490L1596 1491L1595 1490M1628 1490L1629 1491L1628 1490M1665 1490L1666 1491L1665 1490z"/>
<path style="fill:#5d1e1d; stroke:none;" d="M1467.33 1491.67L1467.67 1492.33L1467.33 1491.67z"/>
<path style="fill:#933c3b; stroke:none;" d="M1594 1491L1595 1492L1594 1491M1630 1491L1631 1492L1630 1491M1592 1492L1593 1493L1592 1492M1632 1492L1633 1493L1632 1492M1664 1492L1665 1493L1664 1492M1591 1493L1592 1494L1591 1493M1633 1493L1634 1494L1633 1493M1663 1493L1664 1494L1663 1493M1468 1494L1469 1495L1468 1494M1590 1494L1591 1495L1590 1494M1635 1494L1636 1495L1635 1494z"/>
<path style="fill:#5d1e1d; stroke:none;" d="M1468.33 1495.67L1468.67 1496.33L1468.33 1495.67z"/>
<path style="fill:#933c3b; stroke:none;" d="M1589 1495L1590 1496L1589 1495M1636 1495L1637 1496L1636 1495M1662 1495L1663 1496L1662 1495M1588 1496L1589 1497L1588 1496M1638 1496L1639 1497L1638 1496M1661 1496L1662 1497L1661 1496M1587 1497L1588 1498L1587 1497M1639.67 1497.33L1640.33 1497.67L1639.67 1497.33M1660 1497L1661 1498L1660 1497M1641 1498L1642 1499L1641 1498M1469 1499L1470 1500L1469 1499M1643 1499L1644 1500L1643 1499M1659 1499L1660 1500L1659 1499z"/>
<path style="fill:#5d1e1d; stroke:none;" d="M1469.33 1500.67L1469.67 1501.33L1469.33 1500.67z"/>
<path style="fill:#933c3b; stroke:none;" d="M1645 1500L1646 1501L1645 1500M1658 1500L1659 1501L1658 1500M1646.67 1501.33L1647.33 1501.67L1646.67 1501.33M1657 1501L1658 1502L1657 1501M1582 1502L1583 1503L1582 1502M1648.67 1502.33L1649.33 1502.67L1648.67 1502.33M1581 1503L1582 1504L1581 1503M1651.67 1503.33L1652.33 1503.67L1651.67 1503.33M1656 1503L1657 1504L1656 1503M1470.33 1504.67L1470.67 1505.33L1470.33 1504.67M1580 1504L1581 1505L1580 1504M1654.67 1504.33L1655.33 1504.67L1654.67 1504.33M1579 1505L1580 1506L1579 1505z"/>
<path style="fill:#5d1e1d; stroke:none;" d="M1470 1506L1470 1509L1471 1509L1470 1506z"/>
<path style="fill:#933c3b; stroke:none;" d="M1578 1506L1579 1507L1578 1506M1577 1507L1578 1508L1577 1507M1576 1508L1577 1509L1576 1508M1575 1509L1576 1510L1575 1509M1471 1512L1471 1517L1472 1517L1471 1512M1573 1512L1574 1513L1573 1512M1572 1513L1573 1514L1572 1513M1571 1514L1572 1515L1571 1514M1570 1515L1571 1516L1570 1515M1406 1516L1407 1517L1406 1516z"/>
<path style="fill:#5d1e1d; stroke:none;" d="M1409 1516L1410 1517L1409 1516z"/>
<path style="fill:#933c3b; stroke:none;" d="M1569 1516L1570 1517L1569 1516z"/>
<path style="fill:#5d1e1d; stroke:none;" d="M1405 1517L1406 1518L1405 1517M1411 1517L1412 1518L1411 1517M1471 1517L1471 1524L1472 1524L1471 1517z"/>
<path style="fill:#933c3b; stroke:none;" d="M1568 1517L1569 1518L1568 1517M1405 1518L1406 1519L1405 1518z"/>
<path style="fill:#5d1e1d; stroke:none;" d="M1412 1518L1413 1519L1412 1518z"/>
<path style="fill:#933c3b; stroke:none;" d="M1567 1518L1568 1519L1567 1518z"/>
<path style="fill:#5d1e1d; stroke:none;" d="M1413 1519L1414 1520L1413 1519M1442 1519L1443 1520L1442 1519z"/>
<path style="fill:#933c3b; stroke:none;" d="M1566 1519L1567 1520L1566 1519z"/>
<path style="fill:#5d1e1d; stroke:none;" d="M1404.33 1520.67L1404.67 1521.33L1404.33 1520.67M1441 1520L1442 1521L1441 1520M1443 1520L1444 1521L1443 1520z"/>
<path style="fill:#933c3b; stroke:none;" d="M1565 1520L1566 1521L1565 1520z"/>
<path style="fill:#5d1e1d; stroke:none;" d="M1414.33 1521.67L1414.67 1522.33L1414.33 1521.67M1440 1521L1441 1522L1440 1521z"/>
<path style="fill:#933c3b; stroke:none;" d="M1564 1521L1565 1522L1564 1521M1404 1522L1404 1532L1405 1532L1404 1522z"/>
<path style="fill:#5d1e1d; stroke:none;" d="M1444 1522L1445 1523L1444 1522M1439.33 1523.67L1439.67 1524.33L1439.33 1523.67z"/>
<path style="fill:#933c3b; stroke:none;" d="M1445 1524L1446 1525L1445 1524M1471 1524L1471 1527L1472 1527L1471 1524M1439 1525L1440 1526L1439 1525M1446 1526L1447 1527L1446 1526M1560 1526L1561 1527L1560 1526M1559 1527L1560 1528L1559 1527M1447 1528L1448 1529L1447 1528M1558 1528L1559 1529L1558 1528z"/>
<path style="fill:#5d1e1d; stroke:none;" d="M1448 1530L1449 1531L1448 1530z"/>
<path style="fill:#933c3b; stroke:none;" d="M1557 1530L1558 1531L1557 1530z"/>
<path style="fill:#5d1e1d; stroke:none;" d="M1415.33 1531.67L1415.67 1532.33L1415.33 1531.67M1470.33 1531.67L1470.67 1532.33L1470.33 1531.67z"/>
<path style="fill:#933c3b; stroke:none;" d="M1556.33 1531.67L1556.67 1532.33L1556.33 1531.67z"/>
<path style="fill:#5d1e1d; stroke:none;" d="M1438.33 1532.67L1438.67 1533.33L1438.33 1532.67z"/>
<path style="fill:#933c3b; stroke:none;" d="M1449 1532L1450 1533L1449 1532M1415 1533L1416 1534L1415 1533M1470.33 1533.67L1470.67 1534.33L1470.33 1533.67M1555.33 1533.67L1555.67 1534.33L1555.33 1533.67z"/>
<path style="fill:#5d1e1d; stroke:none;" d="M1403.33 1534.67L1403.67 1535.33L1403.33 1534.67z"/>
<path style="fill:#933c3b; stroke:none;" d="M1438 1534L1439 1535L1438 1534z"/>
<path style="fill:#5d1e1d; stroke:none;" d="M1416 1535L1417 1536L1416 1535M1451 1535L1452 1536L1451 1535M1437 1536L1438 1537L1437 1536M1452 1536L1453 1537L1452 1536z"/>
<path style="fill:#933c3b; stroke:none;" d="M1469 1536L1470 1537L1469 1536M1554.33 1536.67L1554.67 1537.33L1554.33 1536.67z"/>
<path style="fill:#5d1e1d; stroke:none;" d="M1401 1537L1402 1538L1401 1537z"/>
<path style="fill:#933c3b; stroke:none;" d="M1417 1537L1418 1538L1417 1537z"/>
<path style="fill:#5d1e1d; stroke:none;" d="M1436 1537L1437 1538L1436 1537M1453 1537L1454 1538L1453 1537M1467 1537L1468 1538L1467 1537M1397.67 1538.33L1398.33 1538.67L1397.67 1538.33z"/>
<path style="fill:#933c3b; stroke:none;" d="M1419 1538L1420 1539L1419 1538z"/>
<path style="fill:#5d1e1d; stroke:none;" d="M1420.67 1538.33L1421.33 1538.67L1420.67 1538.33M1431.67 1538.33L1432.33 1538.67L1431.67 1538.33z"/>
<path style="fill:#933c3b; stroke:none;" d="M1433 1538L1434 1539L1433 1538z"/>
<path style="fill:#5d1e1d; stroke:none;" d="M1454 1538L1455 1539L1454 1538M1465 1538L1466 1539L1465 1538z"/>
<path style="fill:#933c3b; stroke:none;" d="M1379 1539L1379 1620L1380 1659L1381 1659L1380 1628L1380 1571L1379 1539z"/>
<path style="fill:#5d1e1d; stroke:none;" d="M1456 1539L1457 1540L1456 1539M1462 1539L1463 1540L1462 1539z"/>
<path style="fill:#933c3b; stroke:none;" d="M1463 1539L1464 1540L1463 1539M1553 1540L1553 1545L1554 1545L1553 1540M1554.33 1547.67L1554.67 1548.33L1554.33 1547.67M1555.33 1550.67L1555.67 1551.33L1555.33 1550.67M1556 1553L1557 1554L1556 1553M1557 1555L1558 1556L1557 1555M1558 1557L1559 1558L1558 1557M1559 1558L1560 1559L1559 1558M1560 1560L1561 1561L1560 1560M1561 1561L1562 1562L1561 1561M1562 1563L1563 1564L1562 1563M1563 1564L1564 1565L1563 1564M1564 1566L1565 1567L1564 1566M1565 1567L1566 1568L1565 1567M1566 1568L1567 1569L1566 1568M1567 1570L1568 1571L1567 1570M1568 1571L1569 1572L1568 1571M1483 1572L1483 1573L1489 1573L1483 1572M1479.67 1573.33L1480.33 1573.67L1479.67 1573.33M1491 1573L1492 1574L1491 1573M1569 1573L1570 1574L1569 1573M1476.67 1574.33L1477.33 1574.67L1476.67 1574.33M1492.67 1574.33L1493.33 1574.67L1492.67 1574.33M1473.67 1575.33L1474.33 1575.67L1473.67 1575.33M1494 1575L1495 1576L1494 1575M1570 1575L1571 1576L1570 1575M1470.67 1576.33L1471.33 1576.67L1470.67 1576.33M1495 1576L1496 1577L1495 1576M1571.33 1576.67L1571.67 1577.33L1571.33 1576.67M1467.67 1577.33L1468.33 1577.67L1467.67 1577.33M1496 1577L1497 1578L1496 1577M1464.67 1578.33L1465.33 1578.67L1464.67 1578.33M1572.33 1578.67L1572.67 1579.33L1572.33 1578.67M1461.67 1579.33L1462.33 1579.67L1461.67 1579.33M1497 1579L1498 1580L1497 1579M1457.67 1580.33L1458.33 1580.67L1457.67 1580.33M1498 1580L1499 1581L1498 1580M1453.67 1581.33L1454.33 1581.67L1453.67 1581.33M1573.33 1581.67L1573.67 1582.33L1573.33 1581.67M1449.67 1582.33L1450.33 1582.67L1449.67 1582.33M1499 1582L1500 1583L1499 1582M1445.67 1583.33L1446.33 1583.67L1445.67 1583.33M1500 1583L1501 1584L1500 1583M1440 1584L1440 1585L1443 1585L1440 1584M1436.67 1585.33L1437.33 1585.67L1436.67 1585.33M1501 1585L1502 1586L1501 1585M1574 1585L1575 1586L1574 1585M1431 1586L1431 1587L1434 1587L1431 1586M1502.33 1586.67L1502.67 1587.33L1502.33 1586.67M1573 1586L1574 1587L1573 1586M1427 1587L1427 1588L1430 1588L1427 1587M1572 1587L1573 1588L1572 1587M1423.67 1588.33L1424.33 1588.67L1423.67 1588.33M1503.33 1588.67L1503.67 1589.33L1503.33 1588.67M1570 1588L1571 1589L1570 1588M1418 1589L1418 1590L1421 1590L1418 1589M1569 1589L1570 1590L1569 1589M1414 1590L1414 1591L1417 1591L1414 1590M1504.33 1590.67L1504.67 1591.33L1504.33 1590.67M1567 1590L1568 1591L1567 1590M1412 1591L1412 1597L1413 1597L1412 1591M1566 1591L1567 1592L1566 1591M1505.33 1592.67L1505.67 1593.33L1505.33 1592.67M1564 1592L1565 1593L1564 1592M1563 1593L1564 1594L1563 1593M1506.33 1594.67L1506.67 1595.33L1506.33 1594.67M1561.67 1594.33L1562.33 1594.67L1561.67 1594.33M1560 1595L1561 1596L1560 1595M1507.33 1596.67L1507.67 1597.33L1507.33 1596.67M1559 1596L1560 1597L1559 1596M1557 1597L1558 1598L1557 1597M1508.33 1598.67L1508.67 1599.33L1508.33 1598.67M1556 1598L1557 1599L1556 1598M1554 1599L1555 1600L1554 1599M1509.33 1600.67L1509.67 1601.33L1509.33 1600.67M1552 1600L1553 1601L1552 1600M1551 1601L1552 1602L1551 1601M1510 1602L1511 1603L1510 1602M1549 1602L1550 1603L1549 1602M1548 1603L1549 1604L1548 1603M1411 1604L1411 1615L1412 1615L1411 1604M1511 1604L1512 1605L1511 1604M1546 1604L1547 1605L1546 1604M1544 1605L1545 1606L1544 1605M1512 1606L1513 1607L1512 1606M1542.67 1606.33L1543.33 1606.67L1542.67 1606.33M1513 1607L1514 1608L1513 1607M1541 1607L1542 1608L1541 1607M1514 1608L1515 1609L1514 1608M1539 1608L1540 1609L1539 1608M1537 1609L1538 1610L1537 1609M1515 1610L1516 1611L1515 1610M1535 1610L1536 1611L1535 1610M1516 1611L1517 1612L1516 1611M1533 1611L1534 1612L1533 1611M1517 1612L1518 1613L1517 1612M1531 1612L1532 1613L1531 1612M1518 1613L1519 1614L1518 1613M1529 1613L1530 1614L1529 1613M1519 1614L1520 1615L1519 1614M1527 1614L1528 1615L1527 1614M1521 1615L1522 1616L1521 1615M1524.67 1615.33L1525.33 1615.67L1524.67 1615.33M1411 1616L1411 1625L1412 1625L1411 1616M1522 1616L1523 1617L1522 1616M1412 1627L1412 1630L1413 1630L1412 1627M1413 1631L1413 1634L1414 1634L1413 1631M1414 1635L1414 1639L1415 1639L1414 1635M1414 1644L1414 1647L1415 1647L1414 1644M1413 1648L1414 1649L1413 1648M1412 1650L1413 1651L1412 1650M1411 1651L1412 1652L1411 1651M1410 1652L1411 1653L1410 1652M1409 1653L1410 1654L1409 1653M1407 1654L1408 1655L1407 1654M1405.67 1655.33L1406.33 1655.67L1405.67 1655.33M1402.67 1656.33L1403.33 1656.67L1402.67 1656.33M1398 1657L1398 1658L1401 1658L1398 1657z"/>
<path style="fill:#5d1e1d; stroke:none;" d="M1379 1658L1380 1659L1379 1658z"/>
<path style="fill:#933c3b; stroke:none;" d="M1392 1658L1392 1659L1396 1659L1392 1658M1386 1659L1386 1660L1389 1660L1386 1659z"/>
<path style="fill:#040404; stroke:none;" d="M955 1740L910 1741C914.746 1752.2 914.746 1778.8 910 1790L942 1790L956 1792L957 1792L957 1780L956 1780C948.88 1785.39 930.825 1782 922 1782L922 1769L945 1770L945 1760L922 1761L922 1749L956 1750L955 1740M1277 1751L1272 1761C1278.05 1758.16 1286.39 1739.37 1274.1 1740.66C1267.55 1741.35 1269.59 1752.4 1277 1751M1355 1741C1359.75 1752.2 1359.75 1778.8 1355 1790L1369 1790L1367 1770C1376.14 1770 1388.69 1772.12 1396.96 1767.43C1405.27 1762.71 1405.27 1748.29 1396.96 1743.57C1386.14 1737.43 1367.05 1741 1355 1741M1109 1748C1101.29 1753.84 1080.6 1750 1071 1750C1075.16 1759.83 1075.16 1780.17 1071 1790L1111 1791L1111 1782L1082 1783L1082 1773L1100 1775L1101 1775L1101 1764L1100 1764L1082 1766L1082 1757C1089.45 1757 1102.93 1754.41 1109 1759L1110 1759L1109 1748M1185 1749.46C1154.73 1754.87 1164.96 1795.85 1194 1790.38C1222.95 1784.93 1212.95 1744.47 1185 1749.46M1293 1778L1290 1787C1300.97 1787.52 1309.71 1793.43 1321 1788.86C1328.35 1785.88 1332.03 1776.36 1325.77 1770.28C1320.89 1765.53 1313.2 1766.35 1307 1765.42C1304.71 1765.08 1300.14 1764.91 1299.63 1761.91C1299.09 1758.71 1303.72 1757.5 1306 1757.19C1313.3 1756.19 1318.57 1759.35 1325 1762L1328 1754C1318.1 1752.3 1310.38 1747.01 1300 1750.61C1292.08 1753.36 1286.93 1763.98 1294.23 1770.57C1299.89 1775.69 1315.57 1771.06 1319.08 1777.42C1320.96 1780.82 1315.25 1782.5 1313 1782.81C1305.69 1783.82 1299.23 1781.56 1293 1778z"/>
<path style="fill:#434343; stroke:none;" d="M1367 1749L1367 1762C1372.98 1762 1385.9 1764.43 1390.68 1760.4C1394.23 1757.4 1393.17 1751.31 1388.94 1749.6C1382.98 1747.2 1373.38 1749 1367 1749z"/>
<path style="fill:#040404; stroke:none;" d="M1477 1749.46C1446.73 1754.87 1456.96 1795.85 1486 1790.38C1514.95 1784.93 1504.95 1744.47 1477 1749.46M1656 1785L1651 1776L1650 1776C1636.98 1799.72 1602.82 1762.97 1632 1757.34C1634.88 1756.78 1638.16 1756.85 1641 1757.61C1645.06 1758.71 1647.94 1761.29 1651 1764L1656 1756C1643.53 1753.15 1634.17 1744.82 1621 1752.37C1605.38 1761.32 1609.14 1784.87 1626 1789.7C1637.61 1793.02 1645.17 1786.93 1656 1785M1660 1749L1660 1758L1675 1757C1675 1765.43 1678.17 1782.18 1673 1789L1673 1790L1686 1790C1681.89 1780.3 1684 1767.4 1684 1757L1699 1757L1699 1750L1660 1749M1743 1749.46C1712.73 1754.87 1722.96 1795.85 1752 1790.38C1780.95 1784.93 1770.95 1744.47 1743 1749.46M964 1750C968.163 1759.82 968.163 1780.18 964 1790L976 1790L974 1764L975 1764L988 1788L990 1788L1005 1764L1003 1790L1016 1790L1016 1789C1011.63 1783.23 1011.63 1756.77 1016 1751L1016 1750L1000 1750L1000 1751C1003.56 1756.9 992.682 1769.26 990 1775C985.896 1768.04 977.731 1758.3 980 1750L964 1750M1024 1750C1028.16 1759.83 1028.16 1780.17 1024 1790L1037 1790L1035 1775C1042.86 1775 1052.81 1776.55 1059.96 1772.56C1066.89 1768.68 1067.53 1757.54 1060.89 1753.01C1051.75 1746.77 1034.55 1750 1024 1750M1118 1750C1122.16 1759.83 1122.16 1780.17 1118 1790L1131 1790L1129 1773C1138.3 1773.01 1148.11 1779.39 1147 1790L1163 1790L1163 1789L1149 1773C1157.81 1769.99 1166.65 1757.27 1153.98 1751.7C1143.95 1747.29 1128.75 1750 1118 1750M1219 1750C1223.16 1759.82 1223.16 1780.17 1219 1790L1232 1790L1230 1773C1239.3 1773.01 1249.11 1779.39 1248 1790L1264 1790L1264 1789L1250 1773C1258.81 1769.99 1267.65 1757.27 1254.98 1751.7C1244.95 1747.29 1229.75 1750 1219 1750M1410 1750C1414.16 1759.83 1414.16 1780.17 1410 1790L1423 1790L1421 1773C1430.3 1773.01 1440.11 1779.39 1439 1790L1455 1790L1455 1789L1441 1773C1449.81 1769.99 1458.65 1757.27 1445.98 1751.7C1435.95 1747.29 1420.75 1750 1410 1750M1511 1750C1515.16 1759.83 1515.16 1780.17 1511 1790C1521.73 1790 1537.43 1792.81 1547 1786.99C1558.56 1779.96 1558.15 1758.7 1546 1752.45C1536.28 1747.45 1521.6 1750 1511 1750M1561 1750L1561 1751C1567.48 1759.55 1559.68 1774.22 1565.18 1783.9C1571.11 1794.35 1596.21 1793.59 1601.43 1782.98C1606.36 1772.97 1600.6 1760.39 1605 1750L1593 1750C1594.72 1754.07 1595 1757.61 1595 1762C1595 1766.8 1596.18 1773.58 1593.82 1777.95C1590.43 1784.22 1579.26 1784.77 1574.65 1779.61C1569.28 1773.58 1571.11 1756.83 1574 1750L1561 1750M1704 1750C1708.16 1759.83 1708.16 1780.17 1704 1790L1717 1790C1712.84 1780.18 1712.84 1759.82 1717 1750L1704 1750M1777 1750C1781.16 1759.83 1781.16 1780.17 1777 1790L1789 1790L1787 1764C1794.01 1768.94 1809.62 1781.07 1810 1790L1823 1790C1818.84 1780.18 1818.84 1759.82 1823 1750L1811 1750L1813 1776C1806.64 1769.64 1791.4 1759.35 1791 1750L1777 1750z"/>
<path style="fill:#434343; stroke:none;" d="M1129 1757L1129 1766C1133.64 1766 1149.81 1768.59 1150.53 1761.96C1151.37 1754.34 1133.52 1757 1129 1757M1184 1757.65C1166.69 1763.11 1177.29 1787.61 1194 1782.35C1211.31 1776.89 1200.71 1752.39 1184 1757.65M1230 1757L1230 1766C1234.64 1766 1250.81 1768.59 1251.53 1761.96C1252.37 1754.34 1234.52 1757 1230 1757M1421 1757L1421 1766C1425.64 1766 1441.81 1768.59 1442.53 1761.96C1443.37 1754.34 1425.52 1757 1421 1757M1476 1757.65C1458.69 1763.11 1469.29 1787.61 1486 1782.35C1503.31 1776.89 1492.71 1752.39 1476 1757.65M1522 1757L1522 1783C1527.41 1783 1535.05 1784.37 1539.98 1781.82C1547.99 1777.69 1548.37 1763.63 1540.96 1758.74C1536 1755.47 1527.68 1757 1522 1757M1742 1757.65C1724.69 1763.11 1735.29 1787.61 1752 1782.35C1769.31 1776.89 1758.71 1752.39 1742 1757.65M1035 1758L1035 1767C1039.56 1767 1055.61 1769.54 1056.34 1762.94C1057.17 1755.42 1039.39 1758 1035 1758z"/>
</svg>
